<svg xmlns="http://www.w3.org/2000/svg" xmlns:xlink="http://www.w3.org/1999/xlink" width="1920" zoomAndPan="magnify" viewBox="0 0 1440 809.999993" height="1080" preserveAspectRatio="xMidYMid meet" version="1.0"><defs><g/><clipPath id="e0ebfd029d"><rect x="0" width="1125" y="0" height="491"/></clipPath></defs><g transform="matrix(1, 0, 0, 1, 183, 92)"><g clip-path="url(#e0ebfd029d)"><g fill="#000000" fill-opacity="1"><g transform="translate(0.969294, 391.996346)"><g><path d="M 22.203125 0 L 22.203125 -295.375 L 144.71875 -295.375 C 166.65625 -295.375 185.085938 -292.203125 200.015625 -285.859375 C 214.953125 -279.515625 226.1875 -270.722656 233.71875 -259.484375 C 241.25 -248.253906 245.015625 -235.238281 245.015625 -220.4375 C 245.015625 -209.207031 242.703125 -199.164062 238.078125 -190.3125 C 233.453125 -181.457031 227.007812 -174.15625 218.75 -168.40625 C 210.488281 -162.65625 200.941406 -158.585938 190.109375 -156.203125 L 190.109375 -153.625 C 202.003906 -153.226562 212.972656 -150.054688 223.015625 -144.109375 C 233.054688 -138.171875 241.113281 -129.976562 247.1875 -119.53125 C 253.269531 -109.09375 256.3125 -96.800781 256.3125 -82.65625 C 256.3125 -66.800781 252.347656 -52.628906 244.421875 -40.140625 C 236.492188 -27.648438 224.894531 -17.835938 209.625 -10.703125 C 194.363281 -3.566406 175.765625 0 153.828125 0 Z M 91.984375 -56.09375 L 138.375 -56.09375 C 153.4375 -56.09375 164.695312 -59.097656 172.15625 -65.109375 C 179.625 -71.128906 183.359375 -79.425781 183.359375 -90 C 183.359375 -97.53125 181.609375 -104.101562 178.109375 -109.71875 C 174.609375 -115.332031 169.585938 -119.660156 163.046875 -122.703125 C 156.503906 -125.742188 148.675781 -127.265625 139.5625 -127.265625 L 91.984375 -127.265625 Z M 91.984375 -174.046875 L 134 -174.046875 C 141.800781 -174.046875 148.675781 -175.367188 154.625 -178.015625 C 160.570312 -180.660156 165.265625 -184.457031 168.703125 -189.40625 C 172.140625 -194.363281 173.859375 -200.347656 173.859375 -207.359375 C 173.859375 -217.265625 170.351562 -225.125 163.34375 -230.9375 C 156.34375 -236.757812 146.828125 -239.671875 134.796875 -239.671875 L 91.984375 -239.671875 Z M 91.984375 -174.046875 "/></g></g><g transform="translate(269.185222, 391.996346)"><g><path d="M 90.984375 -295.375 L 90.984375 0 L 22 0 L 22 -295.375 Z M 90.984375 -295.375 "/></g></g><g transform="translate(382.180845, 391.996346)"><g><path d="M 22 0 L 22 -218.84375 L 90.984375 -218.84375 L 90.984375 0 Z M 56.5 -243.625 C 46.320312 -243.625 37.734375 -246.863281 30.734375 -253.34375 C 23.734375 -259.820312 20.234375 -267.75 20.234375 -277.125 C 20.234375 -286.644531 23.734375 -294.640625 30.734375 -301.109375 C 37.734375 -307.585938 46.320312 -310.828125 56.5 -310.828125 C 66.539062 -310.828125 75.0625 -307.585938 82.0625 -301.109375 C 89.070312 -294.640625 92.578125 -286.644531 92.578125 -277.125 C 92.578125 -267.75 89.070312 -259.820312 82.0625 -253.34375 C 75.0625 -246.863281 66.539062 -243.625 56.5 -243.625 Z M 56.5 -243.625 "/></g></g><g transform="translate(495.176468, 391.996346)"><g><path d="M 90.984375 -123.703125 L 90.984375 0 L 22 0 L 22 -218.84375 L 87.625 -218.84375 L 88.609375 -162.953125 L 84.046875 -162.953125 C 89.734375 -180.785156 98.421875 -195.085938 110.109375 -205.859375 C 121.804688 -216.628906 137.503906 -222.015625 157.203125 -222.015625 C 172.660156 -222.015625 186.039062 -218.613281 197.34375 -211.8125 C 208.644531 -205.007812 217.398438 -195.363281 223.609375 -182.875 C 229.816406 -170.382812 232.921875 -155.75 232.921875 -138.96875 L 232.921875 0 L 163.9375 0 L 163.9375 -125.484375 C 163.9375 -137.898438 160.796875 -147.578125 154.515625 -154.515625 C 148.242188 -161.460938 139.488281 -164.9375 128.25 -164.9375 C 120.851562 -164.9375 114.347656 -163.316406 108.734375 -160.078125 C 103.117188 -156.835938 98.753906 -152.175781 95.640625 -146.09375 C 92.535156 -140.019531 90.984375 -132.554688 90.984375 -123.703125 Z M 90.984375 -123.703125 "/></g></g><g transform="translate(750.110456, 391.996346)"><g><path d="M 84.046875 -57.890625 L 84.046875 -140.15625 L 93.5625 -140.15625 L 157 -218.84375 L 235.703125 -218.84375 L 142.921875 -106.65625 L 124.890625 -106.65625 Z M 22 0 L 22 -295.375 L 90.984375 -295.375 L 90.984375 0 Z M 159.1875 0 L 100.5 -91.1875 L 145.703125 -140.15625 L 238.875 0 Z M 159.1875 0 "/></g></g></g><g fill="#5170ff" fill-opacity="1"><g transform="translate(988.409222, 391.996346)"><g><path d="M 67.203125 4.15625 C 56.628906 4.15625 47.738281 0.585938 40.53125 -6.546875 C 33.332031 -13.679688 29.734375 -22.46875 29.734375 -32.90625 C 29.734375 -43.34375 33.332031 -52.128906 40.53125 -59.265625 C 47.738281 -66.410156 56.628906 -69.984375 67.203125 -69.984375 C 77.773438 -69.984375 86.660156 -66.410156 93.859375 -59.265625 C 101.066406 -52.128906 104.671875 -43.34375 104.671875 -32.90625 C 104.671875 -22.46875 101.066406 -13.679688 93.859375 -6.546875 C 86.660156 0.585938 77.773438 4.15625 67.203125 4.15625 Z M 67.203125 4.15625 "/></g></g></g></g></g></svg>